<!-- Generated by IcoMoon.io -->
<svg version="1.1" xmlns="http://www.w3.org/2000/svg" width="1024" height="1024" viewBox="0 0 1024 1024">
<title></title>
<g id="icomoon-ignore">
</g>
<path fill="#888" d="M511.999 24.909c-144.414 0-260.151 108.76-260.151 243.546 0.326 14.353 1.398 35.099 2.768 52.584-24.696 10.481-26.498 58.544-5.535 107.935 8.313 19.586 18.9 34.625 30.443 47.049 2.805 13.881 2.069 20.113 5.535 35.978 9.673 29.018 47.808 85.891 83.027 132.843 3.453 36.059 7.036 72.448 0 113.47-101.48 84.194-362.94 120.406-362.551 207.568l-5.535 33.211h1024l-5.535-33.211c-0.416-74.598-262.316-120.406-362.551-207.568-4.056-33.365-4.829-66.769-2.767-99.632 32.092-49.524 75.021-114.36 85.795-146.681 3.872-16.367 5.281-27.421 8.303-41.514 9.616-11.648 17.824-24.823 24.908-41.514 19.914-46.921 18.627-91.714-2.767-105.168 1.261-18.905 2.212-39.021 2.767-55.351 0-134.786-115.738-243.546-260.151-243.546z"></path>
</svg>
