<svg xmlns="http://www.w3.org/2000/svg" width="55" height="55" viewBox="0 0 55 55"><defs><style>.a,.b{fill:#36f;}.a{opacity:0;}</style></defs><rect class="a" width="55" height="55"/><path class="b" d="M40.958,3H8.875A6.875,6.875,0,0,0,2,9.875V21.333H47.833V9.875A6.875,6.875,0,0,0,40.958,3Z" transform="translate(2.583 3.875)"/><path class="b" d="M2,15.292a6.875,6.875,0,0,0,6.875,6.875h13.75V26.75H13.458a2.292,2.292,0,1,0,0,4.583H36.375a2.292,2.292,0,0,0,0-4.583H27.208V22.167h13.75a6.875,6.875,0,0,0,6.875-6.875V13H2Z" transform="translate(2.583 16.792)"/></svg>