<svg width="300" height="64" viewBox="0 0 300 64" fill="none" xmlns="http://www.w3.org/2000/svg">
<path d="M46.3435 36.9472C43.3462 33.28 35.5635 33.28 32.5462 33.28C29.5289 33.28 21.5746 33.28 18.7581 36.928C15.1429 40.8159 4.9227 55.5325 0.838326 61.4749C0.10241 62.5405 0.838326 64.0285 2.0986 63.9996C5.89781 63.9228 18.3244 62.8476 22.2893 60.5821C23.1999 60.0636 24.1289 58.1437 24.1289 58.1437C24.1289 58.1437 28.1674 49.1704 28.8298 47.9609C28.8757 47.8649 28.931 47.7785 29.0046 47.6631C29.0505 47.5961 29.0782 47.5288 29.3449 47.2121C29.8417 46.6265 30.458 46.1369 31.1755 45.8872C33.0245 45.244 34.9655 45.9641 36.0326 47.5671C36.0601 47.5961 36.0787 47.6344 36.1062 47.6825C36.1614 47.7689 36.2165 47.8551 36.2718 47.9705C36.925 49.1608 40.9633 58.1341 40.9633 58.1341C40.9633 58.1341 41.8924 60.0541 42.8031 60.5725C46.777 62.838 59.1944 63.9132 62.9937 63.99C64.2448 64.0188 64.99 62.5309 64.254 61.4653C60.1696 55.5229 49.9494 40.8159 46.3435 36.9376V36.9472Z" fill="url(#paint0_linear_21810_76981)"/>
<circle cx="32.5453" cy="14.08" r="14.08" fill="url(#paint1_linear_21810_76981)"/>
<path d="M90.011 17.4233H77.3848C76.9429 17.4233 76.6375 17.9026 76.7675 18.3819C77.2549 20.1959 77.6643 23.4107 77.6643 26.7069V47.1394C77.6643 47.8103 78.0607 48.3928 78.6325 48.5698C82.2455 49.6833 86.7619 50.2879 90.0175 50.2879C94.4039 50.2879 97.7439 48.5698 99.9859 45.9595C102.234 43.3567 103.384 39.3601 103.384 33.8076C103.384 22.0024 98.6472 17.4307 90.0175 17.4307L90.011 17.4233ZM89.0363 43.5483H88.6529C86.9373 43.4525 85.4362 43.2313 84.7864 42.8921V23.6541H89.0363C93.9944 23.6541 96.1194 25.8146 96.1194 33.8004C96.1194 41.786 93.637 43.5483 89.0363 43.5483Z" fill="#14131F"/>
<path d="M130.752 40.8783C130.752 46.5241 126.429 50.2879 117.441 50.2879C114.233 50.2879 111.252 49.9173 108.854 49.2198C108.438 49.0962 108.103 48.7838 107.935 48.3842C107.257 46.8074 106.842 45.1871 106.761 43.0581V42.7603C106.761 42.2516 107.272 41.9028 107.745 42.0845C110.508 43.1381 113.811 43.8066 116.646 43.8066C120.62 43.8066 122.551 43.3633 122.551 40.8855C122.551 38.4079 120.612 37.8193 115.101 36.2353C108.547 34.3025 106.266 31.8756 106.266 26.8257C106.266 20.7367 110.691 17.4233 119.227 17.4233C121.895 17.4233 124.644 17.7648 126.779 18.2371C127.261 18.3389 127.646 18.6731 127.815 19.1308C128.091 19.8865 128.347 20.9184 128.543 21.9574C128.682 22.684 128.777 23.7231 128.835 24.5151C128.872 25.031 128.375 25.4306 127.888 25.2635C125.343 24.3915 122.778 24.0064 120.415 24.0064C116.843 24.0064 114.408 24.3988 114.408 26.7748C114.408 28.8602 115.947 29.3978 121.064 30.7421C128.908 32.8638 130.745 36.1408 130.745 40.8855L130.752 40.8783Z" fill="#14131F"/>
<path d="M176.48 17.4233C167.76 17.4233 163.161 22.2252 163.161 34.0009C163.161 45.7766 167.76 50.2879 176.48 50.2879C185.2 50.2879 189.807 45.1882 189.807 34.0009C189.807 22.2252 185.158 17.4233 176.48 17.4233ZM176.48 43.5029C171.953 43.5029 169.967 40.5317 169.967 33.9936C169.967 26.8672 171.96 24.252 176.48 24.252C181.002 24.252 182.964 26.8672 182.964 33.9936C182.964 40.5317 180.966 43.5029 176.48 43.5029Z" fill="#14131F"/>
<path d="M216.46 17.4233C216.853 17.4233 217.175 17.7604 217.175 18.1723V18.734C217.096 20.8461 216.624 22.681 216.031 24.0667C215.916 24.3288 215.659 24.4935 215.38 24.4935H207.935V48.1833C207.935 48.4754 207.777 48.7375 207.527 48.8574C205.982 49.5989 203.915 50.1905 201.534 50.2879H200.805C200.411 50.2879 200.09 49.9508 200.09 49.539V24.4935H192.315C192.037 24.4935 191.779 24.3288 191.672 24.0667C191.078 22.681 190.606 20.8461 190.527 18.734V18.1723C190.527 17.7604 190.85 17.4233 191.243 17.4233H216.46Z" fill="#14131F"/>
<path d="M142.222 49.539V40.6412H149.412C156.074 40.6412 160.28 35.9453 160.28 29.1596C160.28 22.374 156.879 17.4233 149.599 17.4233H134.323C133.852 17.4233 133.525 17.9102 133.665 18.397C134.185 20.2394 134.622 23.5049 134.622 26.8528V48.1908C134.622 48.4904 134.782 48.7525 135.039 48.8799C135.622 49.1569 136.545 49.5315 137.204 49.7037C138.293 49.9958 139.501 50.2355 140.827 50.2879H141.541C141.923 50.2879 142.235 49.9508 142.235 49.539H142.222ZM147.712 34.32H142.222V23.7521H147.947C151.063 23.7521 152.535 25.7443 152.535 29.1072C152.535 32.2229 150.918 34.32 147.712 34.32Z" fill="#14131F"/>
<path d="M242.103 20.7144C244.92 20.7144 246.904 21.484 248.548 23.0232C250.217 24.5363 251.103 26.6885 251.103 29.3234C251.103 30.1844 251.234 30.8757 251.103 31.554C251.048 31.8728 250.978 32.2027 250.893 32.5437C250.754 33.0993 250.243 33.4715 249.67 33.4715H235.49C235.464 33.628 235.45 33.8758 235.45 34.215C235.45 35.3629 235.764 36.2368 236.39 36.8368C237.016 37.4369 237.851 37.7369 238.894 37.7369C240.315 37.7369 241.453 37.2267 242.307 36.2065C242.594 35.8628 243.001 35.6237 243.449 35.6237H247.882C248.816 35.6237 249.44 36.5776 248.94 37.3667C248.025 38.8109 246.803 40.043 245.273 41.0631C243.16 42.4719 240.786 43.1763 238.151 43.1763C235.333 43.1763 233.076 42.3936 231.381 40.8283C229.711 39.263 229.138 37.0977 229.138 34.4106C229.138 33.6019 229.216 32.7671 229.372 31.9062C229.764 29.6365 230.311 27.6929 231.537 25.9972C232.763 24.3015 234.29 22.9971 236.116 22.084C237.942 21.1709 239.938 20.7144 242.103 20.7144ZM244.529 30.067C244.581 29.7017 244.607 29.4539 244.607 29.3234C244.607 28.2799 244.281 27.4842 243.629 26.9364C242.977 26.3624 242.116 26.0755 241.046 26.0755C239.899 26.0755 238.881 26.4277 237.994 27.132C237.133 27.8103 236.507 28.7886 236.116 30.067H244.529Z" fill="#14131F"/>
<path d="M264.786 25.2929C265.804 23.9885 266.964 22.971 268.269 22.2405C269.115 21.7593 269.983 21.4311 270.871 21.256C271.667 21.0991 272.287 21.8384 272.146 22.6372L271.791 24.6472L271.355 27.1113C271.245 27.7345 270.703 28.1886 270.071 28.1886H269.325C267.656 28.1886 266.338 28.5539 265.373 29.2843C264.408 29.9887 263.769 31.241 263.456 33.041L261.946 41.3405C261.895 41.6158 261.759 41.8694 261.537 42.039C261.219 42.2806 260.711 42.6161 260.172 42.7621C259.542 42.9332 258.31 43.1763 258.31 43.1763H256.497C255.693 43.1763 255.081 42.4565 255.209 41.6632L257.765 25.8952C257.765 25.8952 257.984 24.4524 257.765 23.5719C257.685 23.2492 257.519 22.8944 257.333 22.5645C257.042 22.0468 257.392 21.3405 257.986 21.3405H262.145H263.933C264.745 21.3405 265.36 22.0744 265.217 22.8738L264.786 25.2929Z" fill="#14131F"/>
<path d="M284.234 24.1189C285.069 23.1014 286.113 22.2796 287.365 21.6535C288.643 21.0274 290.052 20.7144 291.591 20.7144C293.939 20.7144 295.831 21.484 297.266 23.0232C298.726 24.5624 299.08 26.6494 299.08 29.2843C299.08 30.093 299.002 30.967 298.846 31.9062C298.454 34.1498 298.061 36.1325 296.913 37.8543C295.765 39.55 294.383 40.8675 292.765 41.8066C291.148 42.7197 289.439 43.1763 287.639 43.1763C286.126 43.1763 284.848 42.8632 283.804 42.2371C282.76 41.611 281.991 40.8022 281.495 39.8109L279.364 51.6093C279.298 51.9752 279.08 52.2973 278.752 52.4715C278.349 52.6851 277.789 52.9507 277.38 53.0184C276.749 53.123 276.398 53.2056 275.762 53.2724C275.195 53.3319 274.486 53.3395 273.866 53.3291C273.091 53.3161 272.533 52.6067 272.666 51.8432L277.352 24.9798C277.352 24.9798 277.479 23.701 277.408 23.0232C277.371 22.6733 277.226 22.3224 277.054 22.0145C276.831 21.614 277.098 21.0274 277.557 21.0274H282.248H283.226C284.038 21.0274 284.652 21.7604 284.511 22.5594L284.234 24.1189ZM292.118 31.9062C292.197 31.4627 292.236 31.0583 292.236 30.6931C292.236 29.3887 292.191 28.3712 291.435 27.6408C290.704 26.9103 289.765 26.5451 288.617 26.5451C287.287 26.5451 286.389 26.9103 285.293 27.8756C284.197 28.8408 283.556 30.2365 283.243 31.9062C283.165 32.3758 283.126 32.8062 283.126 33.1975C283.126 34.4759 283.113 35.5194 283.843 36.2499C284.574 36.9803 285.513 37.3456 286.661 37.3456C287.991 37.3456 288.847 37.2151 289.942 36.2499C291.064 35.2585 291.805 33.5758 292.118 31.9062Z" fill="#14131F"/>
<path fill-rule="evenodd" clip-rule="evenodd" d="M230.03 48.2573C229.469 48.2573 229.014 48.7122 229.014 49.2733C229.014 49.8345 229.469 50.2893 230.03 50.2893H269.155V48.2573L230.03 48.2573ZM270.171 48.2573L283.295 48.2573L284.311 48.2573V50.2893L283.295 50.2893L270.171 50.2893H269.155M270.171 48.2573L297.13 48.2573C297.691 48.2573 298.146 48.7122 298.146 49.2733C298.146 49.8344 297.691 50.2893 297.13 50.2893L284.311 50.2893" fill="#14131F"/>
<defs>
<linearGradient id="paint0_linear_21810_76981" x1="32.5408" y1="33.273" x2="32.5408" y2="63.9712" gradientUnits="userSpaceOnUse">
<stop stop-color="#00CBF2"/>
<stop offset="1" stop-color="#5724FF"/>
</linearGradient>
<linearGradient id="paint1_linear_21810_76981" x1="32.5453" y1="0" x2="32.5453" y2="28.16" gradientUnits="userSpaceOnUse">
<stop stop-color="#A6EAF7"/>
<stop offset="1" stop-color="#0CB3F4"/>
</linearGradient>
</defs>
</svg>
