<svg xmlns="http://www.w3.org/2000/svg" width="56" height="56" viewBox="0 0 14 14" xmlns:v="https://vecta.io/nano"><path d="M4.25.773C-.023 2.699-1.125 8.324 2.074 11.727c2.574 2.699 7.277 2.699 9.852 0 2.523-2.676 2.426-7.152-.199-9.652C9.801.25 6.602-.301 4.25.773zm5.199.953C11.574 2.824 12.75 4.676 12.75 7c0 2.102-.898 3.773-2.648 4.898-.727.5-.676.551-1.152-.973l-.398-1.199.676-.25c.348-.152.922-.527 1.273-.828.352-.324.801-.648 1-.723.301-.102.301-.152-.023-.152-.426-.023-.676-1-.801-3.199-.074-1.324-.199-1.449-1.152-.973-.949.5-3.473.523-4.422.047C4.176 3.148 4 3.324 4 4.625c0 .602-.102 1.176-.25 1.25-.125.074-.25.551-.25 1.023 0 .625-.102.852-.426.875-.426.027-.426.051-.023.152.25.051.773.449 1.176.848S5.199 9.5 5.5 9.5c.375 0 .5.125.449.426-.125.699-1.625.723-2.348.051-.828-.777-.953-.5-.203.473.453.574.852.801 1.375.801.602 0 .727.102.727.625 0 .801-.426.801-1.648-.023C2.051 10.625 1.25 9.125 1.25 7c0-2.301 1.148-4.148 3.25-5.273 1.199-.625 3.699-.625 4.949 0zM7.5 11.977c0 .422-.102.824-.25.898-.148.102-.25-.199-.25-.727 0-.5.125-.898.25-.898.148 0 .25.324.25.727zm1.125.523a.48.48 0 0 1-.398.25c-.25 0-.301-.824-.051-1.102.223-.223.648.551.449.852zM6.5 12.25c0 .273-.102.5-.25.5-.125 0-.25-.227-.25-.5s.125-.5.25-.5c.148 0 .25.227.25.5zm0 0" fill="rgb(0%,0%,0%)"/></svg>