<svg xmlns="http://www.w3.org/2000/svg" xmlns:xlink="http://www.w3.org/1999/xlink" width="22px" height="19px" viewBox="0 0 22 19" version="1.1">
    <!-- Generator: Sketch 57.1 (83088) - https://sketch.com -->
    <title>Artboard</title>
    <desc>Created with Sketch.</desc>
    <g id="Artboard" stroke="none" stroke-width="1" fill="none" fill-rule="evenodd">
        <g id="cloud-download-outline-(1)" transform="translate(4.000000, -1.000000)" fill="#5E5E5E" fill-rule="nonzero">
            <rect id="Rectangle" opacity="0" x="0" y="0" width="15" height="15"/>
            <path d="M7.13445402,10.6899955 L6.48414355,11.3199944 L6.48414355,8.5 C6.48414355,8.22385725 6.26188865,8 5.98772335,8 C5.71355804,8 5.49130314,8.22385725 5.49130314,8.5 L5.49130314,11.2949945 L4.85092107,10.6449956 C4.72499983,10.5181665 4.54146563,10.4686341 4.36945402,10.5150568 C4.19744241,10.5614794 4.06308604,10.6968044 4.01699567,10.8700562 C3.9709053,11.0433079 4.02008314,11.2281653 4.14600438,11.3549944 L5.635265,12.8549919 C5.72894884,12.948585 5.85577337,13.00076 5.98772335,13 C6.11553643,12.999479 6.23822815,12.9493321 6.33025329,12.8599919 L7.81951391,11.4099943 C7.96310168,11.2906573 8.02833123,11.1004365 7.98847211,10.9172826 C7.94861299,10.7341286 7.8103657,10.5888306 7.63038268,10.5409302 C7.45039966,10.4930297 7.25893689,10.5505793 7.13445402,10.6899955 L7.13445402,10.6899955 Z" id="Path"/>
            <path d="M10.134454,9.6899955 L9.48414355,10.3199944 L9.48414355,7.5 C9.48414355,7.22385725 9.26188865,7 8.98772335,7 C8.71355804,7 8.49130314,7.22385725 8.49130314,7.5 L8.49130314,10.2949945 L7.85092107,9.64499557 C7.72499983,9.5181665 7.54146563,9.46863411 7.36945402,9.51505677 C7.19744241,9.56147943 7.06308604,9.69680444 7.01699567,9.87005618 C6.9709053,10.0433079 7.02008314,10.2281653 7.14600438,10.3549944 L8.635265,11.8549919 C8.72894884,11.948585 8.85577337,12.00076 8.98772335,12 C9.11553643,11.999479 9.23822815,11.9493321 9.33025329,11.8599919 L10.8195139,10.4099943 C10.9631017,10.2906573 11.0283312,10.1004365 10.9884721,9.9172826 C10.948613,9.73412864 10.8103657,9.58883057 10.6303827,9.54093016 C10.4503997,9.49302974 10.2589369,9.55057928 10.134454,9.6899955 L10.134454,9.6899955 Z" id="Path" transform="translate(9.000000, 9.500000) scale(1, -1) translate(-9.000000, -9.500000) "/>
            <path d="M11.1586452,4.52074941 C10.6166231,3.0119724 9.14155049,2 7.48434694,2 C5.82714339,2 4.35207077,3.0119724 3.81004866,4.52074941 C2.62368184,4.673836 1.62155507,5.44458716 1.20380205,6.5252539 C0.786049034,7.60592064 1.02072733,8.82044785 1.81413354,9.68389363 C1.94274775,9.9021524 2.19451756,10.0249935 2.45324758,9.99572402 C2.71197759,9.96645453 2.92736244,9.79076535 3,9.54973959 C3.07263535,9.30871383 2.98840057,9.04921458 2.78617013,8.8910045 C2.27396662,8.33930543 2.14705554,7.54873726 2.46233575,6.87374063 C2.77761597,6.198744 3.47594054,5.7659491 4.244225,5.76939372 L4.30902744,5.76939372 C4.62186819,5.77547194 4.89453456,5.56531731 4.95705183,5.269936 C5.20236403,4.10603769 6.26456721,3.26960154 7.49730743,3.26960154 C8.73004765,3.26960154 9.79225083,4.10603769 10.037563,5.269936 C10.1000803,5.56531731 10.3727467,5.77547194 10.6855874,5.76939372 L10.7244689,5.76939372 C11.4927533,5.7659491 12.1910779,6.198744 12.5063581,6.87374063 C12.8216383,7.54873726 12.6947273,8.33930543 12.1825238,8.8910045 C12.0672225,9.01557569 12.0084952,9.17943945 12.0194534,9.34601128 C12.0304115,9.51258311 12.1101427,9.66799231 12.240846,9.77754196 C12.3589835,9.87791906 12.5110252,9.93340412 12.668542,9.9336225 C12.8546722,9.93339542 13.0317145,9.85607185 13.1545603,9.72135296 C13.9703237,8.85902026 14.2188391,7.63038054 13.7988488,6.53604384 C13.3788585,5.44170714 12.3604772,4.66436633 11.1586452,4.52074941 Z" id="Path"/>
        </g>
        <text id="Import-/-Export" font-family="MicrosoftSansSerif, Microsoft Sans Serif" font-size="3" font-weight="normal" letter-spacing="-0.0790419179" fill="#5E5E5E">
            <tspan x="2" y="16">Import / Export</tspan>
        </text>
    </g>
</svg>