<svg width="56" height="56" viewBox="0 0 56 56" fill="none" xmlns="http://www.w3.org/2000/svg">
<rect width="56" height="56" rx="8" fill="#8C7AE4"/>
<rect width="56" height="56" rx="8" fill="url(#paint0_linear_6531_88570)"/>
<rect width="56" height="56" rx="8" fill="url(#paint1_linear_6531_88570)"/>
<g clip-path="url(#clip0_6531_88570)">
<path d="M21.5063 28.1828V31.8959C21.5063 32.0164 21.4082 32.1144 21.2877 32.1144H19.6834C19.5625 32.1144 19.4648 32.0164 19.4648 31.8959V26.0326C19.4648 25.9121 19.5629 25.814 19.6834 25.814H21.2877C21.4082 25.814 21.5063 25.9121 21.5063 26.0326V26.4945C21.9094 25.9905 22.4764 25.6753 23.2703 25.6753C24.0139 25.6753 24.6565 25.9779 25.047 26.5449C25.5257 25.9779 26.2062 25.6753 27.038 25.6753C28.4494 25.6753 29.4195 26.5071 29.4195 28.0946V31.8959C29.4195 32.0164 29.3214 32.1144 29.2009 32.1144H27.5966C27.4756 32.1144 27.378 32.0164 27.378 31.8959V28.5233C27.378 27.8302 26.9876 27.4902 26.4579 27.4902C26.017 27.4902 25.664 27.7676 25.4622 28.1833V31.8963C25.4622 32.0168 25.3641 32.1149 25.2436 32.1149H23.6393C23.5183 32.1149 23.4207 32.0168 23.4207 31.8963V28.5238C23.4207 27.8307 23.0303 27.4907 22.5007 27.4907C22.0471 27.4907 21.7067 27.7681 21.5049 28.1838" fill="white"/>
<path d="M32.103 32.2405C30.9186 32.2405 29.9229 31.4592 29.9229 30.2495C29.9229 29.1408 30.6538 28.6237 32.0148 28.2711L33.754 27.8176C33.7036 27.4019 33.3757 27.2002 32.8466 27.2002C32.3777 27.2002 32.0404 27.3795 31.8849 27.7382C31.8415 27.8382 31.7373 27.897 31.6308 27.8718L30.2526 27.5439C30.1255 27.5136 30.0513 27.3781 30.0966 27.2558C30.4922 26.1853 31.5916 25.6244 32.9218 25.6244C34.711 25.6244 35.7446 26.4688 35.7446 27.9554V31.8954C35.7446 32.0164 35.6465 32.114 35.526 32.114H34.0048C33.8862 32.114 33.7891 32.0192 33.7863 31.9005L33.7788 31.5722L33.7662 31.5848C33.2496 32.0257 32.7457 32.2401 32.1026 32.2401M32.6191 30.6647C32.8839 30.6647 33.0852 30.5891 33.3879 30.4125L33.7405 30.1982L33.7531 29.1772L32.8456 29.4294C32.2282 29.6059 31.9508 29.7573 31.9508 30.1099C31.9508 30.5003 32.2908 30.6643 32.6186 30.6643" fill="white"/>
<path d="M39.0039 29.1408L38.3864 29.7077V31.8959C38.3864 32.0168 38.2884 32.1144 38.1679 32.1144H36.6014C36.4804 32.1144 36.3828 32.0164 36.3828 31.8959V23.9654C36.3828 23.8449 36.4809 23.7468 36.6014 23.7468H38.1679C38.2884 23.7468 38.3864 23.8449 38.3864 23.9654V27.5528L40.214 25.8714C40.2542 25.8345 40.3074 25.8135 40.3621 25.8135H42.2961C42.496 25.8135 42.5908 26.0592 42.4437 26.1937L40.5671 27.9054L42.7071 31.7903C42.7874 31.936 42.6819 32.1144 42.5156 32.1144H40.6871C40.6059 32.1144 40.5307 32.0691 40.4933 31.9967L39.0043 29.1403L39.0039 29.1408Z" fill="white"/>
<path d="M45.6518 32.2531C43.9004 32.2531 42.2998 31.157 42.2998 28.939C42.2998 26.8471 43.8373 25.6374 45.5257 25.6374C47.2141 25.6374 48.5503 26.8597 48.6003 28.7877C48.6059 28.9913 48.6091 29.1333 48.611 29.2342C48.6129 29.3565 48.5143 29.4555 48.3924 29.4555H44.316C44.3791 30.2117 44.9839 30.6904 45.7527 30.6904C46.2996 30.6904 46.748 30.463 47.0623 30.0519C47.1319 29.9609 47.2603 29.9399 47.3556 30.0038L48.3738 30.6857C48.4756 30.7539 48.5008 30.8922 48.4321 30.9935C47.8866 31.7964 46.9871 32.2531 45.6523 32.2531M44.3543 28.2207H46.5597C46.5471 27.5023 46.018 27.1875 45.4636 27.1875C44.947 27.1875 44.4179 27.4902 44.3548 28.2207" fill="white"/>
<mask id="mask0_6531_88570" style="mask-type:luminance" maskUnits="userSpaceOnUse" x="14" y="25" width="3" height="8">
<path d="M14.6766 25.8177H16.2589C16.3794 25.8177 16.4775 25.9158 16.4775 26.0363V31.8777C16.4775 31.9982 16.3794 32.0962 16.2589 32.0962H14.6766C14.5561 32.0962 14.458 31.9982 14.458 31.8777V26.0363C14.458 25.9158 14.5561 25.8177 14.6766 25.8177Z" fill="white"/>
</mask>
<g mask="url(#mask0_6531_88570)">
<path d="M16.2368 25.1619L12.4209 26.5689L14.7006 32.7516L18.5165 31.3446L16.2368 25.1619Z" fill="white"/>
</g>
<mask id="mask1_6531_88570" style="mask-type:luminance" maskUnits="userSpaceOnUse" x="7" y="25" width="5" height="8">
<path d="M10.0349 25.8948L7.41199 31.114C7.35781 31.2219 7.40125 31.3532 7.50913 31.4073L8.92289 32.1177C9.03077 32.1719 9.16201 32.1285 9.21619 32.0206L11.8391 26.8013C11.8933 26.6934 11.8499 26.5622 11.742 26.508L10.3282 25.7976C10.2965 25.7818 10.2633 25.7743 10.2302 25.7743C10.1503 25.7743 10.0732 25.8182 10.0349 25.8948Z" fill="white"/>
</mask>
<g mask="url(#mask1_6531_88570)">
<path d="M11.1796 24.1226L5.02734 26.7823L8.07206 33.825L14.2243 31.1652L11.1796 24.1226Z" fill="white"/>
</g>
<mask id="mask2_6531_88570" style="mask-type:luminance" maskUnits="userSpaceOnUse" x="11" y="25" width="4" height="8">
<path d="M12.2417 25.9134L11.1194 31.6025C11.0961 31.7207 11.1727 31.8351 11.2908 31.859L12.8419 32.1719C12.9605 32.1957 13.0764 32.1186 13.0997 32L14.222 26.3109C14.2454 26.1927 14.1688 26.0783 14.0506 26.0545L12.4995 25.7416C12.4851 25.7388 12.4706 25.7374 12.4561 25.7374C12.3538 25.7374 12.2623 25.8093 12.2417 25.9134Z" fill="white"/>
</mask>
<g mask="url(#mask2_6531_88570)">
<path d="M13.8692 24.7165L9.00195 26.5083L11.4719 33.2176L16.3391 31.4259L13.8692 24.7165Z" fill="white"/>
</g>
</g>
<defs>
<linearGradient id="paint0_linear_6531_88570" x1="28" y1="0" x2="28" y2="76.8372" gradientUnits="userSpaceOnUse">
<stop offset="0.0729167" stop-color="white"/>
<stop offset="1" stop-color="#171F40"/>
</linearGradient>
<linearGradient id="paint1_linear_6531_88570" x1="4.60604e-07" y1="-9.54546" x2="57.1628" y2="-5.85979" gradientUnits="userSpaceOnUse">
<stop stop-color="#6A71E7"/>
<stop offset="1" stop-color="#E93CB9"/>
</linearGradient>
<clipPath id="clip0_6531_88570">
<rect width="41.2225" height="8.50633" fill="white" transform="translate(7.38867 23.7468)"/>
</clipPath>
</defs>
</svg>
