<svg width="18" height="18" viewBox="0 0 18 18" fill="none" xmlns="http://www.w3.org/2000/svg">
<path d="M9 15.75C8.1875 15.75 7.4345 15.55 6.741 15.15C6.047 14.75 5.5 14.2 5.1 13.5H3V12H4.575C4.5375 11.75 4.51575 11.5 4.50975 11.25C4.50325 11 4.5 10.75 4.5 10.5H3V9H4.5C4.5 8.75 4.50325 8.5 4.50975 8.25C4.51575 8 4.5375 7.75 4.575 7.5H3V6H5.1C5.275 5.7125 5.472 5.44375 5.691 5.19375C5.9095 4.94375 6.1625 4.725 6.45 4.5375L5.25 3.3L6.3 2.25L7.9125 3.8625C8.2625 3.75 8.61875 3.69375 8.98125 3.69375C9.34375 3.69375 9.7 3.75 10.05 3.8625L11.7 2.25L12.75 3.3L11.5125 4.5375C11.8 4.725 12.0595 4.9405 12.291 5.184C12.522 5.428 12.725 5.7 12.9 6H15V7.5H13.425C13.4625 7.75 13.4845 8 13.491 8.25C13.497 8.5 13.5 8.75 13.5 9H15V10.5H13.5C13.5 10.75 13.497 11 13.491 11.25C13.4845 11.5 13.4625 11.75 13.425 12H15V13.5H12.9C12.5 14.2 11.9532 14.75 11.2597 15.15C10.5657 15.55 9.8125 15.75 9 15.75ZM9 14.25C9.825 14.25 10.5312 13.9563 11.1187 13.3688C11.7062 12.7813 12 12.075 12 11.25V8.25C12 7.425 11.7062 6.71875 11.1187 6.13125C10.5312 5.54375 9.825 5.25 9 5.25C8.175 5.25 7.46875 5.54375 6.88125 6.13125C6.29375 6.71875 6 7.425 6 8.25V11.25C6 12.075 6.29375 12.7813 6.88125 13.3688C7.46875 13.9563 8.175 14.25 9 14.25ZM7.5 12H10.5V10.5H7.5V12ZM7.5 9H10.5V7.5H7.5V9Z" fill="white"/>
</svg>
