<?xml version="1.0" encoding="iso-8859-1"?>
<!-- Generator: Adobe Illustrator 19.0.0, SVG Export Plug-In . SVG Version: 6.00 Build 0)  -->
<svg version="1.1" id="Capa_1" xmlns="http://www.w3.org/2000/svg" xmlns:xlink="http://www.w3.org/1999/xlink" x="0px" y="0px"
	 viewBox="0 0 469.333 469.333" style="enable-background:new 0 0 469.333 469.333;" xml:space="preserve">
<g>
	<g>
		<g>
			<path d="M248.053,106.667c82.453,0,149.333,66.88,149.333,149.333c0,27.2-7.36,52.587-20.053,74.56l31.04,31.04
				c19.947-30.293,31.68-66.56,31.68-105.6c0-45.333-15.787-86.933-42.133-119.787l30.4-30.4l-30.187-30.08l-30.4,30.4
				C334.987,79.787,293.28,64,247.947,64c-39.04,0-75.2,11.733-105.493,31.68l31.04,31.04
				C195.467,114.027,220.853,106.667,248.053,106.667z"/>
			<rect x="184.053" y="0" width="128" height="42.667"/>
			<path d="M56.48,64l-27.2,27.093l58.773,58.773c-20.16,30.4-32,66.88-32,106.133c0,106.027,85.76,192,191.893,192
				c39.253,0,75.733-11.84,106.133-32l53.333,53.333l27.093-27.2L270.24,277.76L56.48,64z M248.053,405.333
				C165.6,405.333,98.72,338.453,98.72,256c0-27.413,7.467-53.013,20.373-75.093L323.147,384.96
				C301.067,397.867,275.467,405.333,248.053,405.333z"/>
			<polygon points="226.72,179.947 226.72,179.947 269.387,222.613 269.387,149.333 226.72,149.333 			"/>
		</g>
	</g>
</g>
<g>
</g>
<g>
</g>
<g>
</g>
<g>
</g>
<g>
</g>
<g>
</g>
<g>
</g>
<g>
</g>
<g>
</g>
<g>
</g>
<g>
</g>
<g>
</g>
<g>
</g>
<g>
</g>
<g>
</g>
</svg>
