<svg width="56" height="56" viewBox="0 0 56 56" fill="none" xmlns="http://www.w3.org/2000/svg">
<rect width="56" height="56" rx="8" fill="white"/>
<g clip-path="url(#clip0_7067_6639)">
<path d="M21.6586 22.3501C19.9147 19.741 20.6147 16.202 23.2274 14.4606C25.8401 12.7192 29.384 13.4182 31.1279 15.9711L43.0411 33.61C44.7849 36.219 44.0849 39.758 41.4722 41.4995C38.8596 43.2409 35.3156 42.5418 33.5718 39.989L28.4027 32.3305C27.7652 31.5191 26.3713 31.6314 25.5525 32.4491C24.8525 33.1481 24.6837 34.8271 24.4462 36.3376C24.4462 36.5686 24.39 36.7433 24.39 36.9743C24.2712 37.9604 23.9274 38.8905 23.3462 39.758C21.4273 42.6042 17.5958 43.3532 14.7457 41.4433C11.8955 39.5333 11.1454 35.701 13.0581 32.8548C14.0456 31.4067 15.5582 30.4767 17.1833 30.1833C21.8898 29.4843 22.7586 24.2038 21.8898 22.7558L21.6586 22.3501Z" fill="#8244E0"/>
</g>
<defs>
<clipPath id="clip0_7067_6639">
<rect width="32" height="29" fill="white" transform="translate(12 13.5)"/>
</clipPath>
</defs>
</svg>
