<?xml version="1.0" standalone="no"?>
<!DOCTYPE svg PUBLIC "-//W3C//DTD SVG 20010904//EN"
 "http://www.w3.org/TR/2001/REC-SVG-20010904/DTD/svg10.dtd">
<svg version="1.0" xmlns="http://www.w3.org/2000/svg"
 width="162.000000pt" height="57.000000pt" viewBox="0 0 162.000000 57.000000"
 preserveAspectRatio="xMidYMid meet">

<g transform="translate(0.000000,57.000000) scale(0.100000,-0.100000)"
fill="#000000" stroke="none">
<path d="M234 326 c-28 -28 -34 -41 -34 -78 0 -70 60 -105 127 -76 26 11 30
16 22 35 -7 20 -12 21 -35 12 -32 -12 -54 -6 -54 16 0 12 12 15 54 15 40 0 55
4 60 16 11 28 6 44 -19 69 -36 37 -79 33 -121 -9z m89 -31 c-3 -13 -53 -20
-53 -7 0 15 13 23 35 20 11 -2 19 -7 18 -13z"/>
<path d="M428 353 c-20 -5 -26 -53 -7 -53 7 0 8 -14 4 -40 -10 -58 0 -78 45
-90 77 -21 122 20 128 116 l4 64 -36 0 -37 0 7 -48 c5 -38 3 -52 -11 -65 -26
-27 -38 -10 -31 43 9 65 -11 87 -66 73z"/>
<path d="M689 345 c-15 -8 -34 -31 -44 -51 -14 -31 -15 -43 -6 -75 10 -32 18
-40 50 -50 53 -16 96 -1 96 32 0 19 -4 23 -20 20 -43 -9 -59 -6 -63 12 -3 14
5 17 52 17 l56 0 0 39 c0 63 -58 90 -121 56z m71 -50 c0 -9 -9 -15 -25 -15
-24 0 -32 10 -18 23 12 13 43 7 43 -8z"/>
<path d="M868 349 c-20 -11 -24 -45 -6 -51 8 -3 9 -20 1 -66 l-10 -62 33 0
c31 0 32 2 39 50 8 57 28 84 56 75 14 -5 20 0 25 21 7 29 -11 48 -36 37 -18
-7 -38 -7 -65 1 -11 3 -28 1 -37 -5z"/>
<path d="M1182 274 c-24 -48 -41 -89 -38 -91 3 -3 11 6 17 21 10 21 19 26 50
26 31 0 38 -4 43 -26 4 -15 9 -24 12 -22 6 6 -26 161 -35 170 -4 4 -26 -31
-49 -78z m57 13 l8 -47 -33 0 c-19 0 -34 2 -34 5 0 9 44 95 47 91 2 -1 7 -24
12 -49z"/>
<path d="M1316 288 c-4 -35 -10 -74 -13 -88 -3 -14 -2 -22 2 -17 11 9 34 167
25 167 -4 0 -11 -28 -14 -62z"/>
</g>
</svg>
