<?xml version="1.0" standalone="no"?>
<!DOCTYPE svg PUBLIC "-//W3C//DTD SVG 20010904//EN"
 "http://www.w3.org/TR/2001/REC-SVG-20010904/DTD/svg10.dtd">
<svg version="1.0" xmlns="http://www.w3.org/2000/svg"
 width="200.000000pt" height="200.000000pt" viewBox="0 0 200.000000 200.000000"
 preserveAspectRatio="xMidYMid meet">

<g transform="translate(0.000000,200.000000) scale(0.100000,-0.100000)"
fill="#000000" stroke="none">
<path d="M444 1342 c-73 -35 -115 -125 -94 -203 23 -83 94 -114 196 -84 56 16
56 17 50 48 -8 42 -19 51 -44 38 -34 -18 -90 -14 -101 8 -6 10 -7 21 -4 25 3
3 43 6 89 6 93 0 94 1 94 79 0 38 -5 52 -25 71 -34 32 -106 37 -161 12z m104
-84 c3 -15 -4 -18 -42 -18 -25 0 -46 4 -46 8 0 34 82 42 88 10z"/>
<path d="M709 1353 c-9 -2 -19 -18 -23 -35 -9 -47 -7 -56 12 -54 12 1 16 -6
15 -24 -11 -118 -8 -141 20 -166 39 -33 129 -34 177 -1 63 42 74 67 78 177 l4
100 -55 0 -56 0 6 -70 c6 -77 -7 -125 -37 -133 -35 -9 -44 17 -32 88 6 35 8
73 5 83 -8 32 -63 49 -114 35z"/>
<path d="M1138 1340 c-69 -37 -106 -114 -92 -193 14 -86 94 -123 199 -93 60
18 60 18 44 65 -9 24 -15 30 -28 25 -54 -24 -121 -12 -121 22 0 11 20 14 89
14 84 0 89 1 95 23 9 34 7 86 -4 108 -26 48 -117 63 -182 29z m110 -82 c3 -15
-4 -18 -42 -18 -25 0 -46 4 -46 8 0 34 82 42 88 10z"/>
<path d="M1413 1350 c-19 -8 -23 -17 -23 -50 0 -29 4 -40 15 -40 19 0 19 -14
0 -120 -8 -47 -15 -86 -15 -87 0 -2 22 -3 49 -3 56 0 54 -3 71 104 15 88 33
110 86 100 30 -5 31 -4 44 41 11 40 11 48 -1 56 -23 14 -55 10 -80 -10 -23
-19 -24 -19 -48 0 -25 20 -62 23 -98 9z"/>
<path d="M1740 1141 c7 -13 10 -34 7 -47 -2 -13 0 -21 4 -18 14 8 10 49 -7 70
-14 18 -15 18 -4 -5z"/>
<path d="M1678 1103 c7 -3 16 -2 19 1 4 3 -2 6 -13 5 -11 0 -14 -3 -6 -6z"/>
<path d="M1715 1050 c-3 -6 1 -7 9 -4 18 7 21 14 7 14 -6 0 -13 -4 -16 -10z"/>
<path d="M1521 883 c-46 -92 -112 -246 -108 -257 2 -6 14 8 26 32 l21 42 64 0
63 0 7 -40 c3 -22 11 -40 17 -40 6 0 9 10 6 23 -3 12 -16 79 -28 150 -25 138
-36 152 -68 90z m43 -54 c4 -29 10 -65 13 -80 l6 -29 -58 0 c-42 0 -56 3 -52
13 26 67 71 156 77 152 4 -2 10 -28 14 -56z"/>
<path d="M1706 908 c-6 -19 -36 -250 -36 -273 0 -11 3 -15 9 -10 5 6 16 66 25
135 9 69 19 133 21 143 4 19 -14 24 -19 5z"/>
<path d="M361 823 c-85 -86 -44 -236 52 -188 17 8 32 13 35 10 3 -2 -2 -21 -9
-42 -18 -46 -55 -63 -100 -46 -23 9 -29 9 -26 0 6 -19 59 -30 89 -18 15 5 34
21 43 34 16 25 53 253 42 263 -3 4 -26 9 -51 11 -40 5 -48 2 -75 -24z m101
-62 c-3 -71 -22 -108 -60 -118 -38 -9 -57 8 -60 57 -7 88 24 133 86 128 l37
-3 -3 -64z"/>
<path d="M599 835 c-59 -32 -79 -146 -34 -190 29 -29 36 -30 78 -9 21 12 32
13 35 5 2 -6 11 -11 19 -11 12 0 13 3 5 13 -8 9 -7 38 2 100 12 82 12 89 -5
97 -25 14 -70 12 -100 -5z m93 -10 c2 -3 0 -35 -5 -72 -12 -96 -62 -139 -109
-96 -30 27 -20 112 19 155 15 17 82 26 95 13z"/>
<path d="M780 753 c-13 -96 -13 -97 10 -115 26 -21 53 -17 88 15 l22 20 0 -28
c0 -57 17 -8 28 81 14 110 15 124 3 124 -5 0 -12 -32 -16 -71 -6 -59 -12 -77
-37 -105 -32 -37 -58 -43 -78 -19 -12 15 -11 43 7 158 3 22 1 37 -4 37 -6 0
-16 -44 -23 -97z"/>
<path d="M1000 840 c0 -5 24 -10 54 -12 l54 -3 -74 -94 c-41 -51 -71 -97 -68
-102 7 -12 131 -11 139 1 4 6 -15 10 -49 10 -31 0 -56 4 -56 9 0 5 32 49 70
99 39 50 70 93 70 96 0 3 -31 6 -70 6 -38 0 -70 -4 -70 -10z"/>
<path d="M1155 828 c3 -13 14 -68 26 -123 l20 -100 -37 -32 c-21 -18 -34 -33
-30 -33 15 0 52 24 66 44 26 36 129 266 119 266 -9 0 -62 -107 -91 -180 -13
-34 -22 -15 -37 75 -7 39 -14 78 -17 88 -8 25 -25 21 -19 -5z"/>
</g>
</svg>
