<?xml version="1.0" standalone="no"?>
<!DOCTYPE svg PUBLIC "-//W3C//DTD SVG 20010904//EN"
 "http://www.w3.org/TR/2001/REC-SVG-20010904/DTD/svg10.dtd">
<svg version="1.0" xmlns="http://www.w3.org/2000/svg"
 width="56.000000pt" height="56.000000pt" viewBox="0 0 56.000000 56.000000"
 preserveAspectRatio="xMidYMid meet">

<g transform="translate(0.000000,56.000000) scale(0.100000,-0.100000)"
fill="#000000" stroke="none">
<path d="M170 529 c-171 -77 -215 -302 -87 -438 103 -108 291 -108 394 0 101
107 97 286 -8 386 -77 73 -205 95 -299 52z m208 -38 c85 -44 132 -118 132
-211 0 -84 -36 -151 -106 -196 -29 -20 -27 -22 -46 39 l-16 48 27 10 c14 6 37
21 51 33 14 13 32 26 40 29 12 4 12 6 -1 6 -17 1 -27 40 -32 128 -3 53 -8 58
-46 39 -38 -20 -139 -21 -177 -2 -37 20 -44 13 -44 -39 0 -24 -4 -47 -10 -50
-5 -3 -10 -22 -10 -41 0 -25 -4 -34 -17 -35 -17 -1 -17 -2 -1 -6 10 -2 31 -18
47 -34 16 -16 39 -29 51 -29 15 0 20 -5 18 -17 -5 -28 -65 -29 -94 -2 -33 31
-38 20 -8 -19 18 -23 34 -32 55 -32 24 0 29 -4 29 -25 0 -32 -17 -32 -66 1
-72 49 -104 109 -104 194 0 92 46 166 130 211 48 25 148 25 198 0z m-78 -410
c0 -17 -4 -33 -10 -36 -6 -4 -10 8 -10 29 0 20 5 36 10 36 6 0 10 -13 10 -29z
m45 -21 c-3 -6 -10 -10 -16 -10 -10 0 -12 33 -2 44 9 9 26 -22 18 -34z m-85
10 c0 -11 -4 -20 -10 -20 -5 0 -10 9 -10 20 0 11 5 20 10 20 6 0 10 -9 10 -20z"/>
</g>
</svg>
