<svg xmlns="http://www.w3.org/2000/svg" width="535.766" height="114.116" viewBox="0 0 535.766 114.116"><path fill="#253F53" d="M185.377 24.986h14.62v64.943h-14.62V62.378h-24.553v27.551h-14.618V24.986h14.618V49.82h24.553zm70.754 63.257c-2.375.687-5.436 1.327-9.185 1.921-3.748.593-7.685.891-11.809.891-4.185 0-7.669-.563-10.447-1.687-2.781-1.125-4.983-2.703-6.607-4.733-1.625-2.03-2.781-4.452-3.468-7.263-.688-2.813-1.03-5.903-1.03-9.278V40.637h13.963v25.771c0 4.498.593 7.748 1.781 9.746 1.185 2 3.404 2.999 6.653 2.999.999 0 2.062-.047 3.187-.14a51.238 51.238 0 0 0 2.998-.329V40.637h13.964v47.606zm58.944-22.961c0 3.937-.578 7.498-1.734 10.684-1.157 3.187-2.827 5.904-5.014 8.152-2.188 2.25-4.872 3.984-8.06 5.202-3.186 1.218-6.81 1.828-10.871 1.828a62.81 62.81 0 0 1-5.294-.235 101.29 101.29 0 0 1-5.435-.609 74.948 74.948 0 0 1-5.108-.89 53.14 53.14 0 0 1-4.311-1.078V25.123l13.963-2.249v18.887a26.173 26.173 0 0 1 4.874-1.594c1.686-.374 3.498-.562 5.435-.562 3.498 0 6.59.609 9.277 1.828 2.686 1.218 4.935 2.952 6.748 5.2 1.812 2.25 3.186 4.953 4.123 8.107.937 3.156 1.407 6.669 1.407 10.542m-14.245-.374c0-8.997-3.313-13.495-9.934-13.495-1.438 0-2.858.188-4.264.562-1.406.375-2.546.843-3.421 1.406v25.396c.687.127 1.561.234 2.624.329 1.062.093 2.217.14 3.468.14 3.81 0 6.685-1.313 8.622-3.937 1.935-2.622 2.905-6.09 2.905-10.401m39.172 14.994c2.561 0 4.372-.249 5.436-.75 1.062-.499 1.592-1.468 1.592-2.905 0-1.124-.687-2.108-2.062-2.951-1.374-.844-3.467-1.796-6.278-2.858-2.187-.812-4.17-1.654-5.95-2.53-1.781-.874-3.297-1.922-4.546-3.14-1.251-1.219-2.219-2.671-2.905-4.357-.688-1.688-1.03-3.717-1.03-6.091 0-4.623 1.717-8.278 5.154-10.965 3.436-2.686 8.153-4.03 14.15-4.03 2.999 0 5.872.267 8.621.797 2.749.532 4.936 1.11 6.561 1.734l-2.437 10.87a51.525 51.525 0 0 0-5.295-1.499c-1.906-.436-4.046-.656-6.419-.656-4.373 0-6.561 1.219-6.561 3.655 0 .562.094 1.063.281 1.499.188.438.563.86 1.125 1.265.563.406 1.326.847 2.295 1.317.968.474 2.204.992 3.703 1.559 3.06 1.135 5.589 2.253 7.59 3.354 1.999 1.104 3.576 2.293 4.733 3.571 1.154 1.278 1.967 2.697 2.436 4.255s.703 3.366.703 5.422c0 4.863-1.828 8.541-5.481 11.035-3.655 2.491-8.826 3.74-15.511 3.74-4.373 0-8.013-.375-10.917-1.125-2.905-.749-4.92-1.373-6.045-1.874l2.343-11.339a45.811 45.811 0 0 0 7.31 2.201c2.499.531 4.967.796 7.404.796m30.829-54.778l13.965-2.25v17.763h16.773v11.62h-16.773v17.337c0 2.938.515 5.279 1.545 7.028 1.031 1.75 3.107 2.624 6.232 2.624 1.499 0 3.045-.141 4.639-.422s3.046-.671 4.357-1.171l1.969 10.87c-1.687.688-3.561 1.281-5.624 1.781-2.062.499-4.592.75-7.591.75-3.81 0-6.967-.517-9.465-1.547-2.499-1.031-4.498-2.468-5.997-4.311-1.5-1.843-2.547-4.077-3.139-6.701-.595-2.624-.892-5.528-.892-8.716V25.124zm57.914 14.2c4.123 0 7.56.469 10.309 1.406s4.951 2.282 6.607 4.029c1.654 1.751 2.826 3.875 3.515 6.373.686 2.5 1.03 5.28 1.03 8.34v29.052c-2 .437-4.779.952-8.341 1.546-3.561.593-7.872.89-12.932.89-3.187 0-6.077-.281-8.668-.843-2.594-.563-4.827-1.484-6.701-2.765a12.622 12.622 0 0 1-4.311-5.015c-1-2.061-1.5-4.591-1.5-7.59 0-2.874.577-5.31 1.733-7.31 1.155-1.999 2.701-3.593 4.64-4.78 1.936-1.186 4.153-2.045 6.653-2.576a37.39 37.39 0 0 1 7.778-.797c1.811 0 3.42.079 4.826.234 1.406.156 2.545.36 3.421.608v-1.311c0-2.375-.719-4.279-2.156-5.717-1.437-1.437-3.936-2.156-7.497-2.156-2.375 0-4.718.173-7.027.515-2.313.345-4.313.829-5.998 1.453l-1.781-11.245c.812-.25 1.828-.515 3.046-.797 1.218-.28 2.545-.53 3.982-.75a87.741 87.741 0 0 1 4.546-.562 50.454 50.454 0 0 1 4.826-.232m1.125 40.859c1.374 0 2.686-.03 3.937-.094 1.249-.061 2.249-.156 2.999-.281V69.219c-.563-.125-1.406-.249-2.53-.375a28.425 28.425 0 0 0-3.093-.187c-1.313 0-2.547.078-3.702.233-1.156.156-2.171.453-3.046.891-.876.438-1.563 1.03-2.061 1.78-.502.75-.75 1.688-.75 2.811 0 2.188.732 3.703 2.202 4.546 1.467.844 3.482 1.265 6.044 1.265m54.354-57.071c2.624 0 5.029.267 7.216.797 2.187.531 3.873 1.046 5.061 1.545l-2.719 11.153a18.348 18.348 0 0 0-4.075-1.266c-1.469-.281-2.827-.421-4.076-.421-1.688 0-3.109.234-4.265.703-1.155.468-2.062 1.11-2.717 1.921-.657.812-1.125 1.78-1.407 2.905-.28 1.125-.421 2.343-.421 3.655v2.436h17.243v11.621H476.82v31.768h-13.963V43.917c0-6.373 1.795-11.433 5.389-15.182 3.592-3.748 8.917-5.623 15.978-5.623m39.265 0c2.624 0 5.028.267 7.217.797 2.186.531 3.873 1.046 5.06 1.545l-2.717 11.153a18.348 18.348 0 0 0-4.077-1.266c-1.468-.281-2.827-.421-4.077-.421-1.687 0-3.107.234-4.263.703-1.157.468-2.063 1.11-2.718 1.921-.655.812-1.125 1.78-1.406 2.905-.28 1.125-.422 2.343-.422 3.655v2.436h17.244v11.621h-17.244v31.768h-13.963V43.917c0-6.373 1.796-11.433 5.388-15.182 3.592-3.748 8.918-5.623 15.978-5.623"/><path fill="#294DFF" d="M13.732 98.915l25.416 14.743c1.44.836 3.248.461 4.31-.823 3.199-3.87 8.029-6.342 13.444-6.342 5.419 0 10.252 2.476 13.453 6.352 1.061 1.285 2.865 1.661 4.308.826l25.546-14.795c1.693-.981 2.172-3.186 1.08-4.809a53.652 53.652 0 0 0-4.043-5.269c-3.847-4.421-8.493-8.078-13.563-11.019l-3.403-1.975-.213-.112c-.2-.096-.4-.19-.603-.284a2.678 2.678 0 0 0-3.101.633c-4.817 5.283-11.749 8.604-19.462 8.604-7.694 0-14.609-3.303-19.426-8.563a2.648 2.648 0 0 0-3.078-.616l-.02.009-3.977 2.306c-6.392 3.701-12.095 8.55-16.466 14.501-.457.622-.9 1.254-1.33 1.896-1.07 1.596-.534 3.772 1.128 4.737"/><path fill="#1F95FF" d="M17.867 15.078a3.346 3.346 0 0 0-1.467 4.083c1.766 4.727 1.485 10.173-1.248 14.877-2.732 4.7-7.348 7.638-12.331 8.446A3.34 3.34 0 0 0 0 45.778L.002 75.05c0 1.919 1.612 3.47 3.528 3.347a53.107 53.107 0 0 0 21.457-6.063l3.111-1.78a50.666 50.666 0 0 0 2.492-1.637 2.68 2.68 0 0 0 1.038-2.982c-2.061-6.762-1.423-14.326 2.41-20.919 3.851-6.626 10.149-10.935 17.086-12.471 1.113-.246 1.968-1.165 2.075-2.299.128-1.342.207-2.698.232-4.067l.002-2.066a53.129 53.129 0 0 0-5.311-22.264C47.283.12 45.129-.508 43.461.445L17.867 15.078z"/><path fill="#5FBBFF" d="M98.652 34.039c-2.734-4.704-3.015-10.15-1.248-14.877a3.346 3.346 0 0 0-1.467-4.083L70.341.446C68.673-.508 66.518.12 65.68 1.85a53.154 53.154 0 0 0-5.312 22.266l.002 2.062a53.61 53.61 0 0 0 .233 4.069c.108 1.134.963 2.052 2.075 2.299 6.937 1.535 13.234 5.845 17.086 12.471 3.832 6.594 4.472 14.157 2.41 20.919a2.68 2.68 0 0 0 1.038 2.983 55.932 55.932 0 0 0 2.491 1.637l3.113 1.779a53.107 53.107 0 0 0 21.458 6.063c1.915.123 3.526-1.427 3.526-3.347l.001-29.273a3.336 3.336 0 0 0-2.819-3.293c-4.984-.809-9.598-3.747-12.33-8.446"/></svg>