<?xml version="1.0" standalone="no"?>
<!DOCTYPE svg PUBLIC "-//W3C//DTD SVG 20010904//EN"
 "http://www.w3.org/TR/2001/REC-SVG-20010904/DTD/svg10.dtd">
<svg version="1.0" xmlns="http://www.w3.org/2000/svg"
 width="56.000000pt" height="56.000000pt" viewBox="0 0 56.000000 56.000000"
 preserveAspectRatio="xMidYMid meet">

<g transform="translate(0.000000,56.000000) scale(0.100000,-0.100000)"
fill="#000000" stroke="none">
<path d="M270 534 c0 -9 15 -31 33 -49 26 -26 46 -35 84 -41 l51 -6 5 -51 c3
-41 10 -56 36 -79 17 -15 40 -28 51 -28 19 0 20 7 20 135 l0 135 -140 0 c-122
0 -140 -2 -140 -16z"/>
<path d="M258 423 c-71 -2 -118 -8 -118 -14 0 -5 7 -24 16 -40 17 -35 67 -59
119 -59 34 0 35 -1 35 -40 0 -52 18 -88 51 -106 58 -29 59 -27 59 120 0 113
-2 135 -16 140 -9 3 -19 5 -22 4 -4 -1 -60 -4 -124 -5z"/>
<path d="M10 275 c0 -48 64 -95 130 -95 l40 0 0 -40 c0 -68 26 -103 93 -124
16 -5 17 4 15 132 l-3 137 -137 3 c-120 2 -138 0 -138 -13z"/>
</g>
</svg>
