<?xml version="1.0" encoding="UTF-8"?>
<svg xmlns="http://www.w3.org/2000/svg" xmlns:xlink="http://www.w3.org/1999/xlink" width="2500px" height="2500px" viewBox="0 0 1875 1875" version="1.1">
<defs>
<linearGradient id="linear0" gradientUnits="userSpaceOnUse" x1="0.98031" y1="0.00161" x2="0.58888" y2="0.40766" gradientTransform="matrix(876.117188,0,0,870.996094,499.5625,602.542969)">
<stop offset="0.18" style="stop-color:rgb(0%,32.156863%,80%);stop-opacity:1;"/>
<stop offset="1" style="stop-color:rgb(14.901961%,51.764706%,100%);stop-opacity:1;"/>
</linearGradient>
<linearGradient id="linear1" gradientUnits="userSpaceOnUse" x1="1.00665" y1="0.00455" x2="0.55402" y2="0.44727" gradientTransform="matrix(876.128906,0,0,870.992187,100.425781,1004.007813)">
<stop offset="0.18" style="stop-color:rgb(0%,32.156863%,80%);stop-opacity:1;"/>
<stop offset="1" style="stop-color:rgb(14.901961%,51.764706%,100%);stop-opacity:1;"/>
</linearGradient>
</defs>
<g id="surface1">
<path style=" stroke:none;fill-rule:nonzero;fill:rgb(14.901961%,51.764706%,100%);fill-opacity:1;" d="M 1704.636719 200.851562 L 898.453125 200.851562 C 898.453125 401.84375 1061.386719 564.777344 1262.378906 564.777344 L 1410.886719 564.777344 L 1410.886719 708.164062 C 1411.015625 908.96875 1573.765625 1071.726562 1774.574219 1071.859375 L 1774.574219 270.789062 C 1774.558594 232.171875 1743.257812 200.867188 1704.636719 200.851562 Z M 1704.636719 200.851562 "/>
<path style=" stroke:none;fill-rule:nonzero;fill:url(#linear0);" d="M 1305.738281 602.542969 L 499.5625 602.542969 C 499.6875 803.351562 662.4375 966.109375 863.25 966.238281 L 1011.757812 966.238281 L 1011.757812 1110.085938 C 1012.011719 1310.890625 1174.875 1473.539062 1375.679688 1473.539062 L 1375.679688 672.496094 C 1375.671875 633.871094 1344.363281 602.5625 1305.738281 602.550781 Z M 1305.738281 602.542969 "/>
<path style=" stroke:none;fill-rule:nonzero;fill:url(#linear1);" d="M 906.609375 1004.007812 L 100.425781 1004.007812 C 100.425781 1204.996094 263.367188 1367.929688 464.351562 1367.929688 L 613.324219 1367.929688 L 613.324219 1511.3125 C 613.457031 1711.933594 775.921875 1874.621094 976.554688 1875 L 976.554688 1073.949219 C 976.542969 1035.328125 945.234375 1004.019531 906.609375 1004.007812 Z M 906.609375 1004.007812 "/>
</g>
</svg>
