<svg width="56" height="56" viewBox="0 0 56 56" fill="none" xmlns="http://www.w3.org/2000/svg">
<rect width="56" height="56" rx="8" fill="white"/>
<g clip-path="url(#clip0_6531_88636)">
<path d="M17.5423 29.9695L17.5366 29.952L21.0255 26.7581V25.2192H15.4283V26.7581H18.7716L18.7771 26.7728L15.3223 29.9695V31.5084H21.0817V29.9697L17.5423 29.9695ZM24.5179 25.0727C23.8723 25.0727 23.3462 25.17 22.9395 25.3648C22.5607 25.5346 22.2416 25.8142 22.0236 26.1675C21.815 26.523 21.6841 26.9187 21.6393 27.3284L23.3375 27.5672C23.399 27.2052 23.5219 26.9488 23.7062 26.7977C23.9157 26.6396 24.1739 26.5598 24.436 26.572C24.7807 26.572 25.0307 26.664 25.1861 26.8484C25.3401 27.0327 25.4184 27.2879 25.4184 27.6243V27.792H23.7855C22.9543 27.792 22.3572 27.9763 21.994 28.3449C21.6309 28.7134 21.4497 29.2001 21.4503 29.8047C21.4503 30.4238 21.6315 30.8847 21.9941 31.187C22.3565 31.4891 22.8124 31.6393 23.3615 31.6375C24.0428 31.6375 24.567 31.4031 24.9337 30.9342C25.1502 30.6462 25.3049 30.3165 25.388 29.9659H25.4497L25.6837 31.5047H27.2226V27.6076C27.2226 26.8023 27.0104 26.1784 26.5859 25.7362C26.1615 25.2938 25.472 25.0726 24.5179 25.0726V25.0727ZM25.0562 29.8764C24.812 30.0801 24.4922 30.1814 24.0941 30.1814C23.766 30.1814 23.5382 30.124 23.4104 30.0091C23.3482 29.9548 23.2986 29.8874 23.2653 29.8118C23.2321 29.7362 23.2158 29.6541 23.2178 29.5715C23.2142 29.4936 23.2265 29.4157 23.2539 29.3427C23.2813 29.2697 23.3233 29.203 23.3773 29.1467C23.4357 29.0919 23.5046 29.0495 23.5798 29.0221C23.655 28.9947 23.735 28.9828 23.8149 28.9872H25.4211V29.0932C25.4243 29.243 25.3931 29.3915 25.3299 29.5273C25.2666 29.6632 25.173 29.7825 25.0562 29.8764ZM36.5279 25.2192H34.7099V31.5093H36.5279V25.2192ZM47.2625 25.2192C46.7489 25.2192 46.3441 25.4004 46.048 25.763C45.8355 26.0233 45.6739 26.4082 45.5633 26.9174H45.5099L45.2721 25.2192H43.7194V31.5084H45.5377V28.2831C45.5377 27.8765 45.6328 27.5646 45.8232 27.3479C46.0137 27.131 46.3651 27.0225 46.8774 27.0225H47.5675V25.2192H47.2625ZM41.915 25.4247C41.4906 25.1722 40.9552 25.0463 40.309 25.0469C39.2916 25.0469 38.4953 25.3364 37.9204 25.9158C37.3453 26.4951 37.0579 27.2938 37.0579 28.3118C37.0432 28.9272 37.1776 29.5371 37.4495 30.0893C37.6984 30.5815 38.086 30.99 38.5644 31.2643C39.0461 31.5426 39.6189 31.682 40.2832 31.6826C40.8575 31.6826 41.3374 31.5942 41.7224 31.4172C42.0846 31.2583 42.4 31.0092 42.6385 30.6938C42.8656 30.3841 43.0341 30.0356 43.136 29.6654L41.5696 29.2269C41.5036 29.4676 41.3766 29.6872 41.201 29.8645C41.024 30.0413 40.7275 30.1299 40.3117 30.1299C39.8172 30.1299 39.4485 29.9883 39.2059 29.705C39.0297 29.5004 38.9193 29.2083 38.8705 28.8297H43.16C43.1776 28.6527 43.1867 28.5043 43.1867 28.3846V27.9928C43.1971 27.4667 43.0884 26.9451 42.869 26.4669C42.6633 26.0313 42.3308 25.668 41.915 25.4247ZM40.2564 26.5462C40.9936 26.5462 41.4115 26.9089 41.5105 27.6345H38.9027C38.9441 27.3924 39.0444 27.1641 39.1948 26.97C39.4338 26.6868 39.7877 26.5455 40.2564 26.5462ZM35.6387 22.6841C35.5019 22.6794 35.3656 22.7023 35.2379 22.7514C35.1101 22.8004 34.9935 22.8747 34.895 22.9697C34.798 23.0657 34.722 23.1808 34.6717 23.3078C34.6214 23.4347 34.598 23.5706 34.6029 23.707C34.598 23.8443 34.6214 23.9812 34.6717 24.109C34.7221 24.2368 34.7982 24.3529 34.8955 24.45C34.9926 24.5471 35.1088 24.6231 35.2367 24.6733C35.3646 24.7236 35.5014 24.7468 35.6387 24.7418C35.7751 24.7469 35.9111 24.7236 36.038 24.6733C36.165 24.623 36.28 24.5468 36.3759 24.4497C36.4711 24.3515 36.5454 24.2351 36.5943 24.1074C36.6433 23.9797 36.6658 23.8435 36.6607 23.7069C36.6671 23.5711 36.645 23.4355 36.5959 23.3087C36.5468 23.182 36.4719 23.0669 36.3757 22.9708C36.2796 22.8746 36.1646 22.7995 36.0378 22.7503C35.9111 22.7011 35.7755 22.6789 35.6396 22.685L35.6387 22.6841ZM31.8827 25.0469C31.2634 25.0469 30.7658 25.2413 30.3899 25.6302C30.1114 25.9182 29.9073 26.3484 29.7771 26.9203H29.7191L29.4812 25.2221H27.9285V33.3164H29.7466V29.9824H29.813C29.8684 30.2047 29.9462 30.4209 30.0452 30.6275C30.199 30.9642 30.4513 31.2462 30.7687 31.4365C31.0977 31.6161 31.4684 31.7055 31.8431 31.6955C32.6042 31.6955 33.1837 31.399 33.5819 30.8063C33.98 30.2134 34.1791 29.3862 34.1791 28.3246C34.1791 27.2993 33.9864 26.4966 33.6013 25.9167C33.2161 25.3369 32.6433 25.0469 31.8827 25.0469ZM32.067 29.6046C31.8549 29.9118 31.5233 30.0653 31.0717 30.0653C30.8856 30.0739 30.7 30.038 30.5305 29.9606C30.361 29.8832 30.2123 29.7666 30.0968 29.6203C29.8614 29.3248 29.7441 28.9202 29.7449 28.4066V28.2869C29.7449 27.7653 29.8622 27.366 30.0968 27.0889C30.3314 26.8118 30.6566 26.6748 31.0717 26.6779C31.5314 26.6779 31.8651 26.8237 32.0735 27.1156C32.2818 27.4074 32.3858 27.8144 32.3858 28.3366C32.3872 28.8766 32.2815 29.2993 32.0688 29.6046H32.067Z" fill="#201515"/>
<path d="M14.6192 29.9695H8.3291V31.5104H14.6192V29.9695Z" fill="#FF4F00"/>
</g>
<defs>
<clipPath id="clip0_6531_88636">
<rect width="39.3418" height="10.6329" fill="white" transform="translate(8.3291 22.6835)"/>
</clipPath>
</defs>
</svg>
