<svg id="Layer_1" enable-background="new 0 0 512 512" height="512" viewBox="0 0 512 512" width="512" xmlns="http://www.w3.org/2000/svg"><g><path fill="#ccc" d="m477.711 22.498h-311.297c-18.907 0-34.289 15.382-34.289 34.289v6.916l-34.537-6.454c-9.001-1.683-18.121.251-25.672 5.445-7.545 5.189-12.624 13.013-14.299 22.03l-57.034 306.939c-3.459 18.613 8.836 36.58 27.408 40.051l306.069 57.197c2.119.396 4.243.591 6.353.591 6.839 0 13.516-2.056 19.281-6.01 7.567-5.189 12.658-13.022 14.337-22.056l10.782-58.025h92.899c18.907 0 34.289-15.382 34.289-34.289v-312.336c-.001-18.906-15.383-34.288-34.29-34.288zm19.289 346.624c0 10.636-8.653 19.289-19.289 19.289h-247.947c-4.142 0-7.5 3.358-7.5 7.5s3.358 7.5 7.5 7.5h139.792l-10.273 55.285c-.946 5.091-3.813 9.504-8.073 12.426-4.237 2.906-9.351 3.989-14.395 3.044l-306.069-57.197c-10.449-1.953-17.365-12.075-15.415-22.565l57.034-306.94c.944-5.082 3.804-9.489 8.052-12.411 4.241-2.917 9.361-4.002 14.416-3.059l37.292 6.969v290.16c0 18.907 15.382 34.289 34.289 34.289h28.737c4.142 0 7.5-3.358 7.5-7.5s-3.358-7.5-7.5-7.5h-28.737c-10.636 0-19.289-8.653-19.289-19.289v-312.337c0-10.636 8.653-19.289 19.289-19.289h311.297c10.636 0 19.289 8.653 19.289 19.289z"/><path fill="#ccc" d="m474.523 52.56h-304.92c-4.142 0-7.5 3.358-7.5 7.5v260.694c0 4.142 3.358 7.5 7.5 7.5h304.92c4.142 0 7.5-3.358 7.5-7.5v-194.562c0-4.142-3.358-7.5-7.5-7.5s-7.5 3.358-7.5 7.5v131.698l-65.091-65.091c-2.929-2.929-7.678-2.929-10.606 0l-43.94 43.939-67.71-67.709c-2.929-2.929-7.678-2.929-10.606 0l-63.438 63.438h-28.529v-164.907h289.92v23.936c0 4.142 3.358 7.5 7.5 7.5s7.5-3.358 7.5-7.5v-31.436c0-4.142-3.358-7.5-7.5-7.5zm-265.785 194.907c1.989 0 3.897-.79 5.303-2.197l60.332-60.332 67.71 67.709c2.929 2.929 7.678 2.929 10.606 0l43.94-43.939 70.394 70.394v34.151h-289.92v-65.787h31.635z"/><path fill="#ccc" d="m307.24 136.063c0 21.736 17.683 39.419 39.419 39.419 21.735 0 39.419-17.683 39.419-39.419 0-21.735-17.683-39.418-39.419-39.418-21.736-.001-39.419 17.682-39.419 39.418zm63.837 0c0 13.465-10.954 24.419-24.419 24.419s-24.419-10.954-24.419-24.419c0-13.464 10.954-24.418 24.419-24.418 13.465-.001 24.419 10.953 24.419 24.418z"/></g></svg>
