<?xml version="1.0" encoding="UTF-8"?>
<svg width="79px" height="23px" viewBox="0 0 79 23" version="1.1" xmlns="http://www.w3.org/2000/svg" xmlns:xlink="http://www.w3.org/1999/xlink">
    <!-- Generator: Sketch 56.3 (81716) - https://sketch.com -->
    <title>Group</title>
    <desc>Created with Sketch.</desc>
    <g id="Page-2" stroke="none" stroke-width="1" fill="none" fill-rule="evenodd">
        <g id="Employee-management-Copy-4" transform="translate(-64.000000, -29.000000)">
            <g id="Group" transform="translate(64.000800, 29.000000)">
                <path d="M11.899,12.0164695 L10.876,12.0164695 C9.788,12.0164695 9.425,12.0374695 8.764,12.1224695 L8.764,8.34846953 C9.553,8.45446953 10.065,8.47646953 11.557,8.47646953 L13.263,8.47646953 C14.351,8.47646953 15.14,8.45446953 16.079,8.36946953 C15.972,9.17946953 15.929,9.88346953 15.929,11.2694695 L15.929,13.6584695 C15.929,15.1724695 15.951,15.8544695 16.079,16.8354695 C14.906,17.5814695 14.33,17.8594695 13.371,18.1794695 C11.984,18.6484695 10.427,18.9044695 8.849,18.9044695 C6.141,18.9044695 4.03,18.1584695 2.515,16.6214695 C0.895,15.0014695 1.49213975e-13,12.4634695 1.49213975e-13,9.54146953 C1.49213975e-13,3.93346953 3.39,0.371469531 8.764,0.371469531 C11.429,0.371469531 13.456,1.20346953 14.863,2.91046953 C15.439,3.57146953 15.78,4.21046953 16.122,5.23446953 L11.771,6.23746953 C11.537,5.46946953 11.281,5.06446953 10.811,4.70146953 C10.256,4.25346953 9.553,4.03946953 8.658,4.03946953 C5.927,4.03946953 4.435,6.02346953 4.435,9.60646953 C4.435,11.5894695 4.882,13.1244695 5.736,14.0634695 C6.419,14.8094695 7.463,15.2144695 8.806,15.2144695 C9.937,15.2144695 10.854,14.9804695 11.899,14.4474695 L11.899,12.0164695 Z" id="Fill-1" fill="#1B005D"></path>
                <path d="M28.023,13.6453695 L28.023,13.0753695 C26.209,13.1163695 25.333,13.2173695 24.497,13.4823695 C23.763,13.7273695 23.315,14.2373695 23.315,14.8283695 C23.315,15.5613695 23.926,15.9903695 24.986,15.9903695 C25.822,15.9903695 26.739,15.6833695 27.29,15.2143695 C27.758,14.8073695 28.023,14.2563695 28.023,13.6453695 M28.023,10.4653695 L28.023,9.99736953 C28.023,9.01936953 27.432,8.57036953 26.086,8.57036953 C24.782,8.57036953 24.089,8.99936953 23.784,9.99736953 L19.89,9.36536953 C20.298,8.16336953 20.747,7.51036953 21.603,6.89936953 C22.704,6.12436953 24.211,5.73736953 26.189,5.73736953 C27.697,5.73736953 29.165,6.02236953 29.96,6.45136953 C31.264,7.16436953 31.835,8.28536953 31.835,10.1203695 L31.835,15.6233695 C31.835,16.8663695 31.876,17.5993695 31.977,18.5173695 L28.023,18.5173695 L28.023,17.5793695 C26.881,18.4563695 25.74,18.8023695 24.069,18.8023695 C22.52,18.8023695 21.358,18.4353695 20.543,17.6813695 C19.809,17.0083695 19.421,16.0303695 19.421,14.9093695 C19.421,13.6243695 19.931,12.6063695 20.91,11.9333695 C21.949,11.2003695 23.315,10.7713695 25.149,10.6083695 C25.944,10.5273695 26.555,10.5063695 28.023,10.4653695" id="Fill-3" fill="#1B005D"></path>
                <path d="M43.0728,0.588669531 L47.2918,0.588669531 C47.1698,1.54666953 47.1288,1.61566953 47.1288,2.85966953 L47.1288,9.15766953 C47.1288,10.5646695 47.1698,11.4006695 47.2918,12.2156695 L43.2358,12.2156695 L43.2358,11.3386695 C43.2358,11.2366695 43.2358,10.9316695 43.2558,10.7886695 C41.9108,12.0526695 40.7488,12.5406695 39.0158,12.5406695 C37.6508,12.5406695 36.5508,12.1536695 35.7758,11.4006695 C34.9608,10.5846695 34.6138,9.58566953 34.6138,7.97566953 L34.6138,2.85966953 C34.6138,1.67766953 34.5518,1.44366953 34.4508,0.588669531 L38.6898,0.588669531 C38.5678,1.56666953 38.5268,1.63666953 38.5268,2.85966953 L38.5268,7.03766953 C38.5268,7.87366953 38.6088,8.24066953 38.8528,8.56766953 C39.1378,8.93366953 39.5878,9.13766953 40.1778,9.13766953 C41.2998,9.13766953 42.4408,8.80266953 43.2358,7.49766953 L43.2358,2.85966953 C43.2358,1.71866953 43.0728,0.588669531 43.0728,0.588669531" id="Fill-5" fill="#1B005D"></path>
                <path d="M61.2223,5.90606953 L61.2223,8.84106953 C60.4473,9.65606953 59.8563,10.2670695 59.4903,10.6960695 L56.0853,14.6300695 C55.9223,14.8130695 55.8613,14.8940695 55.6983,15.0570695 C55.8413,15.0370695 56.1063,15.0370695 56.3103,15.0370695 L58.5323,15.0370695 C59.7953,15.0370695 60.6923,14.9960695 61.6093,14.8940695 L61.6093,18.5430695 C60.6513,18.4410695 59.9583,18.4000695 58.5113,18.4000695 L53.4153,18.4000695 C51.7843,18.4000695 51.3163,18.4000695 50.6633,18.4620695 L50.6633,15.3630695 C51.4583,14.5890695 51.9683,14.0390695 52.3963,13.5500695 L55.6983,9.67706953 C55.7803,9.57506953 55.9023,9.43206953 56.0853,9.24906953 L54.1283,9.24906953 C52.8043,9.24906953 52.0093,9.29006953 51.0513,9.39106953 L51.0513,5.82406953 C52.0703,5.92706953 52.8853,5.96806953 54.1283,5.96806953 L58.4293,5.96806953 C60.1613,5.96806953 60.5703,5.96806953 61.2223,5.90606953" id="Fill-7" fill="#1B005D"></path>
                <path d="M69.1324,17.4158695 L65.3204,8.81486953 C64.4444,6.77686953 64.3624,6.59386953 64.0974,6.08386953 L68.5204,6.08386953 C68.6224,6.73586953 68.8874,7.61186953 69.3154,8.71286953 L71.1914,13.4218695 L73.0044,8.79486953 C73.5744,7.38886953 73.7584,6.79786953 73.8814,6.08386953 L78.3044,6.08386953 C77.7944,7.14386953 77.7944,7.14386953 77.0804,8.81486953 L72.4134,19.5978695 C71.5984,21.5138695 70.1304,22.3898695 67.8074,22.3898695 C66.9104,22.3898695 66.1354,22.2878695 65.0154,22.0428695 L65.4634,18.8028695 C66.1354,19.1488695 66.5234,19.2508695 67.0534,19.2508695 C67.8274,19.2508695 68.3984,18.9038695 68.7034,18.2928695 L69.1324,17.4158695 Z" id="Fill-9" fill="#1B005D"></path>
                <path d="M46.4947,18.7947695 L36.3037,18.7947695 C36.3037,15.9807695 38.5857,13.6987695 41.3987,13.6987695 C44.2137,13.6987695 46.4947,15.9807695 46.4947,18.7947695" id="Fill-12" fill="#CA002D"></path>
                <path d="M74.5728907,0.361139551 L73.5031862,0.361139551 L73.5031862,3.32796953 L73.0666188,3.32796953 L73.0666188,0.361139551 L71.9992,0.361139551 L71.9992,2.66453526e-15 L74.5728907,2.66453526e-15 L74.5728907,0.361139551 Z M75.6784524,2.66453526e-15 L76.7664425,2.71540371 L77.8544325,2.66453526e-15 L78.4235702,2.66453526e-15 L78.4235702,3.32796953 L77.984717,3.32796953 L77.984717,2.0319814 L78.0258595,0.633137061 L76.9332981,3.32796953 L76.5973012,3.32796953 L75.5070254,0.639994141 L75.5504536,2.0319814 L75.5504536,3.32796953 L75.1116005,3.32796953 L75.1116005,2.66453526e-15 L75.6784524,2.66453526e-15 Z" id="TM" fill="#A9A9A9" fill-rule="nonzero"></path>
            </g>
        </g>
    </g>
</svg>