<svg width="18" height="18" viewBox="0 0 18 18" fill="none" xmlns="http://www.w3.org/2000/svg">
<path d="M8.06266 1.83749C8.58766 1.39499 9.43516 1.39499 9.94516 1.83749L11.1302 2.84999C11.3552 3.03749 11.7827 3.19499 12.0827 3.19499H13.3577C14.1527 3.19499 14.8052 3.84749 14.8052 4.64249V5.91749C14.8052 6.21749 14.9627 6.63749 15.1502 6.86249L16.1627 8.04749C16.6052 8.57249 16.6052 9.41999 16.1627 9.92999L15.1502 11.115C14.9627 11.34 14.8052 11.76 14.8052 12.06V13.335C14.8052 14.13 14.1527 14.7825 13.3577 14.7825H12.0827C11.7827 14.7825 11.3627 14.94 11.1377 15.1275L9.95266 16.14C9.42766 16.5825 8.58016 16.5825 8.07016 16.14L6.88516 15.1275C6.66016 14.94 6.23266 14.7825 5.94016 14.7825H4.62766C3.83266 14.7825 3.18016 14.13 3.18016 13.335V12.0525C3.18016 11.76 3.03016 11.3325 2.84266 11.115L1.83016 9.92249C1.39516 9.40499 1.39516 8.56499 1.83016 8.04749L2.84266 6.85499C3.03016 6.62999 3.18016 6.20999 3.18016 5.91749V4.64999C3.18016 3.85499 3.83266 3.20249 4.62766 3.20249H5.92516C6.22516 3.20249 6.64516 3.04499 6.87016 2.85749L8.06266 1.83749Z" stroke="#292D32" stroke-width="1.5" stroke-linecap="round" stroke-linejoin="round"/>
<path d="M9 6.09741V9.71991" stroke="#292D32" stroke-width="1.5" stroke-linecap="round" stroke-linejoin="round"/>
<path d="M8.99609 12H9.00283" stroke="#292D32" stroke-width="2" stroke-linecap="round" stroke-linejoin="round"/>
</svg>
